<svg width="163" height="163" viewBox="0 0 163 163" fill="none" xmlns="http://www.w3.org/2000/svg">
<path d="M41.665 128.928V120.995C41.665 99.0889 59.4237 81.3301 81.3301 81.3301C103.236 81.3301 120.995 99.0889 120.995 120.995V128.928" stroke="#E4E4E4" stroke-width="3" stroke-linecap="round"/>
<path d="M81.3301 81.3303C94.4743 81.3303 105.129 70.6754 105.129 57.5312C105.129 44.3874 94.4743 33.7322 81.3301 33.7322C68.1858 33.7322 57.531 44.3874 57.531 57.5312C57.531 70.6754 68.1858 81.3303 81.3301 81.3303Z" stroke="#E4E4E4" stroke-width="3" stroke-linecap="round" stroke-linejoin="round"/>
<path d="M81.3302 160.66C125.143 160.66 160.66 125.143 160.66 81.3302C160.66 37.5173 125.143 2 81.3302 2C37.5173 2 2 37.5173 2 81.3302C2 125.143 37.5173 160.66 81.3302 160.66Z" stroke="#E4E4E4" stroke-width="3"/>
<path d="M105.351 54.1662C103.5 52.2141 100.748 51 97.7142 51C94.8342 51 92.2113 52.0951 90.3342 53.8806C89.2542 54.9042 88.4313 56.1422 87.9428 57.5229C87.6085 58.4752 87.4285 59.4751 87.4285 60.5226C87.4285 62.308 87.9685 63.9983 88.9199 65.4267C89.4342 66.2361 90.1028 66.9741 90.8742 67.593C92.6742 69.1167 95.0656 70.0451 97.7142 70.0451C98.8456 70.0451 99.9256 69.8785 100.928 69.5452C103.294 68.8548 105.274 67.355 106.508 65.4267C107.048 64.6172 107.46 63.6888 107.691 62.7365C107.897 62.0224 108 61.2844 108 60.5226C108 58.0943 106.997 55.8565 105.351 54.1662ZM101.546 62.2604H99.6428V64.1173C99.6428 65.0934 98.7685 65.9028 97.7142 65.9028C96.6599 65.9028 95.7856 65.0934 95.7856 64.1173V62.2604H93.8828C92.8285 62.2604 91.9542 61.451 91.9542 60.4749C91.9542 59.4989 92.8285 58.6895 93.8828 58.6895H95.7856V56.9992C95.7856 56.0231 96.6599 55.2137 97.7142 55.2137C98.7685 55.2137 99.6428 56.0231 99.6428 56.9992V58.6895H101.546C102.6 58.6895 103.474 59.4989 103.474 60.4749C103.474 61.451 102.626 62.2604 101.546 62.2604Z" fill="#292D32"/>
<path d="M105.429 77.187C105.429 74.0684 104.786 71.0688 103.577 68.331C102.78 68.8548 101.88 69.2595 100.929 69.5451C100.646 69.6404 100.363 69.7118 100.054 69.7832C101.031 72.0686 101.571 74.5683 101.571 77.187C101.571 82.7101 99.1543 87.7332 95.2457 91.3994C94.5 90.5186 93.5486 89.7092 92.4171 89.0188C85.4486 84.686 74.0314 84.686 67.0114 89.0188C65.88 89.7092 64.9543 90.5186 64.1829 91.3994C60.2743 87.7332 57.8571 82.7101 57.8571 77.187C57.8571 66.0218 67.6543 56.9516 79.7143 56.9516C82.5171 56.9516 85.2171 57.4515 87.6857 58.3561C87.7629 58.0705 87.84 57.8086 87.9429 57.5229C88.2514 56.6421 88.6886 55.8327 89.28 55.0947C86.3229 53.9758 83.0829 53.3806 79.7143 53.3806C65.5457 53.3806 54 64.0697 54 77.187C54 84.0908 57.2143 90.3043 62.3057 94.6609C62.3057 94.6847 62.3057 94.6847 62.28 94.7085C62.5371 94.9466 62.8457 95.137 63.1029 95.3513C63.2571 95.4703 63.3857 95.5893 63.54 95.6846C64.0029 96.0417 64.5171 96.3749 65.0057 96.7082C65.1857 96.8273 65.34 96.9225 65.52 97.0415C66.0086 97.351 66.5229 97.6367 67.0629 97.8985C67.2429 97.9938 67.4486 98.1128 67.6286 98.208C68.1429 98.4699 68.6829 98.708 69.2486 98.9222C69.4543 99.0174 69.66 99.1127 69.8657 99.1841C70.4314 99.3983 70.9971 99.5888 71.5629 99.7554C71.7686 99.8269 71.9743 99.8983 72.18 99.9459C72.7971 100.113 73.4143 100.255 74.0314 100.398C74.2114 100.446 74.3914 100.493 74.5971 100.517C75.3171 100.66 76.0371 100.755 76.7829 100.827C76.8857 100.827 76.9886 100.851 77.0914 100.874C77.9657 100.946 78.84 100.993 79.7143 100.993C80.5886 100.993 81.4629 100.946 82.3114 100.874C82.4143 100.874 82.5171 100.851 82.62 100.827C83.3657 100.755 84.0857 100.66 84.8057 100.517C84.9857 100.493 85.1657 100.422 85.3714 100.398C85.9886 100.255 86.6314 100.136 87.2229 99.9459C87.4286 99.8745 87.6343 99.8031 87.84 99.7554C88.4057 99.565 88.9971 99.3983 89.5371 99.1841C89.7429 99.1127 89.9486 99.0174 90.1543 98.9222C90.6943 98.708 91.2343 98.4699 91.7743 98.208C91.98 98.1128 92.16 97.9938 92.34 97.8985C92.8543 97.6129 93.3686 97.351 93.8829 97.0415C94.0629 96.9463 94.2171 96.8273 94.3971 96.7082C94.9114 96.3749 95.4 96.0417 95.8629 95.6846C96.0171 95.5655 96.1457 95.4465 96.3 95.3513C96.5829 95.137 96.8657 94.9228 97.1229 94.7085C97.1229 94.6847 97.1229 94.6847 97.0971 94.6609C102.214 90.3043 105.429 84.0908 105.429 77.187Z" fill="#292D32"/>
<path d="M79.7144 65.1165C74.3915 65.1165 70.0715 69.1159 70.0715 74.0439C70.0715 78.8766 74.1601 82.8046 79.5858 82.9475H79.8172H79.9972H80.0487C85.243 82.7808 89.3315 78.8766 89.3572 74.0439C89.3572 69.1159 85.0372 65.1165 79.7144 65.1165Z" fill="#292D32"/>
</svg>
