<svg width="623" height="562" viewBox="0 0 623 562" fill="none" xmlns="http://www.w3.org/2000/svg">
  <g clip-path="url(#clip0_32_663)">
    <path
      d="M59.9114 473.436L54.4245 453.973C44.6961 450.265 34.7429 447.053 24.6123 444.353L23.9197 453.398L21.111 443.433C8.54729 440.203 0 438.782 0 438.782C0 438.782 11.5425 478.268 35.76 508.455L63.9755 512.912L42.0556 515.755C45.1019 519.052 48.3757 522.173 51.8576 525.1C87.0831 554.507 126.318 568 139.491 555.236C152.664 542.471 134.786 508.285 99.5607 478.881C88.6405 469.764 74.9225 462.448 61.1903 456.689L59.9114 473.436Z"
      fill="#F2F2F2"/>
    <path
      d="M112.092 452.296L118.581 433.084C112.385 425.387 105.711 418.011 98.5905 410.99L92.7992 418.411L96.1214 408.574C87.2212 399.971 80.7214 394.781 80.7214 394.781C80.7214 394.781 67.9117 433.949 71.2908 471.049L92.8828 487.982L72.4811 480.225C73.1949 484.464 74.2045 488.658 75.5038 492.783C88.7576 534.334 114.59 564.124 133.202 559.322C151.814 554.519 156.158 516.943 142.904 475.392C138.796 462.511 131.257 449.871 122.811 438.558L112.092 452.296Z"
      fill="#F2F2F2"/>
    <path
      d="M434.726 133.138H431.303V48.8092C431.303 42.3995 429.9 36.0525 427.172 30.1307C424.445 24.2089 420.448 18.8282 415.408 14.2959C410.369 9.76353 404.387 6.16827 397.802 3.71538C391.218 1.26248 384.161 0 377.035 0H178.381C163.988 0 150.184 5.14239 140.007 14.2959C129.829 23.4494 124.112 35.8642 124.112 48.8092V511.452C124.112 517.862 125.516 524.209 128.243 530.131C130.97 536.053 134.967 541.433 140.007 545.966C145.046 550.498 151.029 554.093 157.613 556.546C164.197 558.999 171.254 560.261 178.381 560.261H377.035C391.427 560.261 405.231 555.119 415.408 545.965C425.585 536.812 431.303 524.397 431.303 511.452V193.165H434.725L434.726 133.138Z"
      fill="#E6E6E6"/>
    <path
      d="M379.224 12.6938H353.296C354.488 15.3235 354.943 18.1765 354.621 21.0016C354.299 23.8267 353.209 26.5372 351.447 28.8942C349.686 31.2512 347.307 33.1824 344.52 34.5177C341.733 35.8529 338.624 36.5513 335.467 36.5512H221.66C218.503 36.551 215.394 35.8525 212.607 34.5171C209.821 33.1818 207.442 31.2505 205.681 28.8936C203.919 26.5366 202.83 23.8262 202.507 21.0012C202.185 18.1762 202.64 15.3233 203.833 12.6938H179.614C168.865 12.6938 158.557 16.5341 150.956 23.3699C143.356 30.2056 139.086 39.4769 139.086 49.1441V511.115C139.086 520.783 143.356 530.054 150.956 536.89C158.557 543.725 168.865 547.566 179.614 547.566H379.224C389.973 547.566 400.281 543.725 407.882 536.89C415.482 530.054 419.752 520.783 419.752 511.115V49.1433C419.752 39.4763 415.482 30.2052 407.881 23.3696C400.281 16.534 389.973 12.6938 379.224 12.6938Z"
      fill="white"/>
    <path
      d="M253.983 196.72C253.983 193.491 254.928 190.318 256.724 187.522C258.519 184.726 261.102 182.404 264.213 180.791C261.104 179.176 257.577 178.326 253.987 178.326C250.397 178.325 246.87 179.175 243.761 180.789C240.652 182.403 238.07 184.725 236.275 187.522C234.48 190.318 233.535 193.49 233.535 196.719C233.535 199.947 234.48 203.119 236.275 205.916C238.07 208.712 240.652 211.034 243.761 212.648C246.87 214.262 250.397 215.112 253.987 215.111C257.577 215.111 261.104 214.261 264.213 212.646C261.103 211.033 258.52 208.712 256.724 205.916C254.928 203.12 253.983 199.949 253.983 196.72Z"
      fill="#CCCCCC"/>
    <path
      d="M279.692 196.72C279.691 193.491 280.636 190.318 282.432 187.522C284.228 184.726 286.811 182.404 289.921 180.791C286.812 179.176 283.286 178.326 279.696 178.326C276.106 178.325 272.579 179.175 269.47 180.789C266.36 182.403 263.778 184.725 261.983 187.522C260.188 190.318 259.243 193.49 259.243 196.719C259.243 199.947 260.188 203.119 261.983 205.916C263.778 208.712 266.36 211.034 269.47 212.648C272.579 214.262 276.106 215.112 279.696 215.111C283.286 215.111 286.812 214.261 289.921 212.646C286.811 211.033 284.228 208.712 282.432 205.916C280.637 203.12 279.691 199.949 279.692 196.72Z"
      fill="#CCCCCC"/>
    <path
      d="M304.817 215.112C316.111 215.112 325.267 206.877 325.267 196.719C325.267 186.561 316.111 178.326 304.817 178.326C293.523 178.326 284.367 186.561 284.367 196.719C284.367 206.877 293.523 215.112 304.817 215.112Z"
      fill="#F9A826"/>
    <path
      d="M338.995 254.167H219.806C218.671 254.166 217.583 253.76 216.781 253.038C215.979 252.317 215.527 251.338 215.526 250.318V143.12C215.527 142.099 215.979 141.121 216.781 140.399C217.583 139.678 218.671 139.272 219.806 139.271H338.995C340.129 139.272 341.217 139.678 342.019 140.399C342.822 141.121 343.273 142.099 343.274 143.12V250.318C343.273 251.338 342.822 252.317 342.019 253.038C341.217 253.76 340.129 254.166 338.995 254.167ZM219.806 140.811C219.125 140.812 218.472 141.055 217.991 141.488C217.509 141.921 217.239 142.508 217.238 143.121V250.318C217.239 250.931 217.509 251.518 217.991 251.951C218.472 252.384 219.125 252.627 219.806 252.628H338.995C339.675 252.627 340.328 252.384 340.81 251.951C341.291 251.518 341.562 250.931 341.562 250.318V143.121C341.562 142.508 341.291 141.921 340.81 141.488C340.328 141.055 339.675 140.812 338.995 140.811H219.806Z"
      fill="#CCCCCC"/>
    <path d="M365.607 336.339H182.808V337.879H365.607V336.339Z" fill="#CCCCCC"/>
    <path
      d="M188.581 326.725C191.769 326.725 194.354 324.401 194.354 321.533C194.354 318.666 191.769 316.341 188.581 316.341C185.392 316.341 182.808 318.666 182.808 321.533C182.808 324.401 185.392 326.725 188.581 326.725Z"
      fill="#F9A826"/>
    <path d="M365.607 388.258H182.808V389.797H365.607V388.258Z" fill="#CCCCCC"/>
    <path
      d="M188.581 378.645C191.769 378.645 194.354 376.32 194.354 373.452C194.354 370.585 191.769 368.26 188.581 368.26C185.392 368.26 182.808 370.585 182.808 373.452C182.808 376.32 185.392 378.645 188.581 378.645Z"
      fill="#F9A826"/>
    <path
      d="M362.262 447.38H304.492C303.494 447.379 302.538 447.022 301.832 446.387C301.127 445.753 300.73 444.892 300.729 443.995V425.784C300.73 424.886 301.127 424.026 301.832 423.391C302.538 422.757 303.494 422.4 304.492 422.399H362.262C363.26 422.4 364.217 422.757 364.922 423.391C365.628 424.026 366.025 424.886 366.026 425.784V443.995C366.025 444.892 365.628 445.753 364.922 446.387C364.217 447.022 363.26 447.379 362.262 447.38Z"
      fill="#F9A826"/>
    <path
      d="M207.412 326.725C210.6 326.725 213.185 324.401 213.185 321.533C213.185 318.666 210.6 316.341 207.412 316.341C204.224 316.341 201.639 318.666 201.639 321.533C201.639 324.401 204.224 326.725 207.412 326.725Z"
      fill="#F9A826"/>
    <path
      d="M226.243 326.725C229.431 326.725 232.016 324.401 232.016 321.533C232.016 318.666 229.431 316.341 226.243 316.341C223.054 316.341 220.47 318.666 220.47 321.533C220.47 324.401 223.054 326.725 226.243 326.725Z"
      fill="#F9A826"/>
    <path
      d="M207.412 378.645C210.6 378.645 213.185 376.32 213.185 373.452C213.185 370.585 210.6 368.26 207.412 368.26C204.224 368.26 201.639 370.585 201.639 373.452C201.639 376.32 204.224 378.645 207.412 378.645Z"
      fill="#F9A826"/>
    <path
      d="M226.243 378.645C229.431 378.645 232.016 376.32 232.016 373.452C232.016 370.585 229.431 368.26 226.243 368.26C223.054 368.26 220.47 370.585 220.47 373.452C220.47 376.32 223.054 378.645 226.243 378.645Z"
      fill="#F9A826"/>
    <path
      d="M620.673 562H20.1409C18.8553 562 17.814 561.589 17.814 561.084C17.814 560.578 18.8553 560.167 20.1409 560.167H620.673C621.958 560.167 623 560.577 623 561.084C623 561.59 621.958 562 620.673 562Z"
      fill="#3F3D56"/>
    <path
      d="M472.302 368.205C472.713 368.374 473.107 368.572 473.482 368.797L510.997 354.396L512.336 345.508L527.326 345.426L526.441 365.811L476.925 377.588C476.821 377.898 476.696 378.201 476.551 378.497C475.835 379.871 474.684 381.024 473.242 381.811C471.8 382.599 470.131 382.985 468.445 382.923C466.76 382.86 465.133 382.35 463.768 381.459C462.403 380.567 461.362 379.332 460.774 377.91C460.187 376.487 460.081 374.94 460.468 373.464C460.855 371.987 461.718 370.646 462.95 369.609C464.181 368.572 465.726 367.886 467.39 367.636C469.054 367.386 470.763 367.584 472.302 368.205Z"
      fill="#FFB8B8"/>
    <path d="M532.778 552.931H522.523L517.646 517.357L532.78 517.358L532.778 552.931Z" fill="#FFB8B8"/>
    <path
      d="M515.199 550.295H534.975V561.494H502.748C502.748 558.524 504.059 555.676 506.395 553.576C508.73 551.475 511.897 550.295 515.199 550.295Z"
      fill="#2F2E41"/>
    <path d="M572.658 550.325L562.453 551.229L553.72 516.258L568.782 514.923L572.658 550.325Z" fill="#FFB8B8"/>
    <path
      d="M554.877 549.252L574.558 547.509L575.778 558.654L543.706 561.495C543.546 560.031 543.707 558.554 544.182 557.146C544.657 555.739 545.435 554.429 546.472 553.293C547.51 552.156 548.786 551.214 550.228 550.521C551.67 549.827 553.25 549.396 554.877 549.252Z"
      fill="#2F2E41"/>
    <path
      d="M535.632 307.778C546.978 307.778 556.175 299.506 556.175 289.301C556.175 279.097 546.978 270.825 535.632 270.825C524.286 270.825 515.089 279.097 515.089 289.301C515.089 299.506 524.286 307.778 535.632 307.778Z"
      fill="#FFB8B8"/>
    <path
      d="M520.232 545.737C519.351 545.739 518.497 545.461 517.821 544.952C517.146 544.443 516.692 543.736 516.539 542.955C511.232 516.456 493.883 429.811 493.468 427.411C493.459 427.356 493.454 427.3 493.455 427.244V420.784C493.454 420.548 493.536 420.319 493.688 420.128L495.98 417.24C496.089 417.102 496.232 416.987 496.398 416.905C496.564 416.824 496.748 416.778 496.937 416.77C510.003 416.219 552.796 414.605 554.863 416.928C556.939 419.262 556.206 426.336 556.038 427.73L556.046 427.876L575.271 538.455C575.422 539.337 575.18 540.237 574.598 540.96C574.017 541.682 573.142 542.17 572.164 542.318L560.156 544.097C559.262 544.226 558.346 544.062 557.574 543.635C556.803 543.209 556.227 542.547 555.953 541.77C552.239 531.097 539.786 495.192 535.47 481.298C535.443 481.21 535.381 481.134 535.296 481.084C535.211 481.034 535.109 481.013 535.009 481.026C534.908 481.039 534.816 481.084 534.75 481.154C534.684 481.223 534.648 481.311 534.65 481.403C534.865 494.647 535.386 528.437 535.566 540.107L535.586 541.364C535.594 542.215 535.246 543.038 534.613 543.67C533.979 544.302 533.104 544.697 532.162 544.777L520.583 545.723C520.466 545.732 520.348 545.737 520.232 545.737Z"
      fill="#2F2E41"/>
    <path
      d="M522.595 315.043C519.009 316.96 516.864 320.482 515.633 324.066C513.354 330.702 511.982 337.563 511.548 344.497L510.247 365.26L494.142 420.303C508.1 430.926 516.152 428.512 534.942 419.823C553.732 411.134 555.879 422.72 555.879 422.72L559.637 375.885L565.005 324.707C563.8 323.402 562.436 322.222 560.939 321.19C555.977 317.72 550.204 315.308 544.055 314.136C537.905 312.964 531.541 313.062 525.44 314.423L522.595 315.043Z"
      fill="#F9A826"/>
    <path
      d="M517.363 379.322C517.797 379.468 518.216 379.645 518.619 379.851L555.712 363.153L556.328 354.106L571.629 353.158L572.449 373.779L522.878 388.523C522.473 390.085 521.55 391.498 520.23 392.576C518.91 393.654 517.257 394.345 515.49 394.557C513.723 394.769 511.926 394.492 510.338 393.763C508.75 393.034 507.447 391.888 506.601 390.477C505.755 389.065 505.407 387.456 505.603 385.862C505.799 384.269 506.53 382.767 507.698 381.556C508.866 380.345 510.417 379.482 512.143 379.083C513.87 378.684 515.691 378.767 517.363 379.322Z"
      fill="#FFB8B8"/>
    <path
      d="M564.737 324.941C573.863 327.838 575.471 359.224 575.471 359.224C564.734 353.913 551.85 362.604 551.85 362.604C551.85 362.604 549.165 354.396 545.944 343.774C544.972 340.786 544.855 337.625 545.606 334.586C546.357 331.547 547.951 328.728 550.239 326.392C550.239 326.392 555.61 322.042 564.737 324.941Z"
      fill="#F9A826"/>
    <path
      d="M554.052 294.188C551.493 292.346 548.001 295.693 548.001 295.693L545.953 279.118C545.953 279.118 533.155 280.497 524.964 278.658C516.774 276.819 515.494 285.335 515.494 285.335C515.072 281.895 514.986 278.429 515.238 274.975C515.75 270.832 522.405 266.688 534.179 263.925C545.953 261.162 552.096 273.134 552.096 273.134C560.287 276.817 556.612 296.029 554.052 294.188Z"
      fill="#2F2E41"/>
  </g>
  <defs>
    <clipPath id="clip0_32_663">
      <rect width="623" height="562" fill="white"/>
    </clipPath>
  </defs>
</svg>
