<svg width="163" height="163" viewBox="0 0 163 163" fill="none" xmlns="http://www.w3.org/2000/svg">
<path d="M41.665 128.928V120.995C41.665 99.0889 59.4237 81.3301 81.3301 81.3301C103.236 81.3301 120.995 99.0889 120.995 120.995V128.928" stroke="black" stroke-width="3" stroke-linecap="round"/>
<path d="M81.3301 81.3303C94.4743 81.3303 105.129 70.6754 105.129 57.5312C105.129 44.3874 94.4743 33.7322 81.3301 33.7322C68.1858 33.7322 57.531 44.3874 57.531 57.5312C57.531 70.6754 68.1858 81.3303 81.3301 81.3303Z" stroke="black" stroke-width="3" stroke-linecap="round" stroke-linejoin="round"/>
<path d="M81.3302 160.66C125.143 160.66 160.66 125.143 160.66 81.3302C160.66 37.5173 125.143 2 81.3302 2C37.5173 2 2 37.5173 2 81.3302C2 125.143 37.5173 160.66 81.3302 160.66Z" stroke="black" stroke-width="3"/>
</svg>
