<svg width="163" height="162" viewBox="0 0 163 162" fill="none" xmlns="http://www.w3.org/2000/svg">
<path d="M106.352 59.1662C104.5 57.2141 101.749 56 98.7144 56C95.8344 56 93.2116 57.0951 91.3344 58.8806C90.2544 59.9042 89.4316 61.1422 88.943 62.5229C88.6087 63.4752 88.4287 64.4751 88.4287 65.5226C88.4287 67.308 88.9687 68.9983 89.9201 70.4267C90.4344 71.2361 91.103 71.9741 91.8744 72.593C93.6744 74.1167 96.0659 75.0451 98.7144 75.0451C99.8459 75.0451 100.926 74.8785 101.929 74.5452C104.294 73.8548 106.274 72.355 107.509 70.4267C108.049 69.6172 108.46 68.6888 108.692 67.7365C108.897 67.0224 109 66.2844 109 65.5226C109 63.0943 107.997 60.8565 106.352 59.1662ZM102.546 67.2604H100.643V69.1173C100.643 70.0934 99.7687 70.9028 98.7144 70.9028C97.6601 70.9028 96.7859 70.0934 96.7859 69.1173V67.2604H94.883C93.8287 67.2604 92.9544 66.451 92.9544 65.4749C92.9544 64.4989 93.8287 63.6895 94.883 63.6895H96.7859V61.9992C96.7859 61.0231 97.6601 60.2137 98.7144 60.2137C99.7687 60.2137 100.643 61.0231 100.643 61.9992V63.6895H102.546C103.6 63.6895 104.474 64.4989 104.474 65.4749C104.474 66.451 103.626 67.2604 102.546 67.2604Z" fill="#FCB500"/>
<path d="M106.429 82.187C106.429 79.0684 105.786 76.0688 104.577 73.331C103.78 73.8548 102.88 74.2595 101.929 74.5451C101.646 74.6404 101.363 74.7118 101.054 74.7832C102.031 77.0686 102.571 79.5683 102.571 82.187C102.571 87.7101 100.154 92.7332 96.2457 96.3994C95.5 95.5186 94.5486 94.7092 93.4171 94.0188C86.4486 89.686 75.0314 89.686 68.0114 94.0188C66.88 94.7092 65.9543 95.5186 65.1829 96.3994C61.2743 92.7332 58.8571 87.7101 58.8571 82.187C58.8571 71.0218 68.6543 61.9516 80.7143 61.9516C83.5171 61.9516 86.2171 62.4515 88.6857 63.3561C88.7629 63.0705 88.84 62.8086 88.9429 62.5229C89.2514 61.6421 89.6886 60.8327 90.28 60.0947C87.3229 58.9758 84.0829 58.3806 80.7143 58.3806C66.5457 58.3806 55 69.0697 55 82.187C55 89.0908 58.2143 95.3043 63.3057 99.6609C63.3057 99.6847 63.3057 99.6847 63.28 99.7085C63.5371 99.9466 63.8457 100.137 64.1029 100.351C64.2571 100.47 64.3857 100.589 64.54 100.685C65.0029 101.042 65.5171 101.375 66.0057 101.708C66.1857 101.827 66.34 101.922 66.52 102.042C67.0086 102.351 67.5229 102.637 68.0629 102.899C68.2429 102.994 68.4486 103.113 68.6286 103.208C69.1429 103.47 69.6829 103.708 70.2486 103.922C70.4543 104.017 70.66 104.113 70.8657 104.184C71.4314 104.398 71.9971 104.589 72.5629 104.755C72.7686 104.827 72.9743 104.898 73.18 104.946C73.7971 105.113 74.4143 105.255 75.0314 105.398C75.2114 105.446 75.3914 105.493 75.5971 105.517C76.3171 105.66 77.0371 105.755 77.7829 105.827C77.8857 105.827 77.9886 105.851 78.0914 105.874C78.9657 105.946 79.84 105.993 80.7143 105.993C81.5886 105.993 82.4629 105.946 83.3114 105.874C83.4143 105.874 83.5171 105.851 83.62 105.827C84.3657 105.755 85.0857 105.66 85.8057 105.517C85.9857 105.493 86.1657 105.422 86.3714 105.398C86.9886 105.255 87.6314 105.136 88.2229 104.946C88.4286 104.874 88.6343 104.803 88.84 104.755C89.4057 104.565 89.9971 104.398 90.5371 104.184C90.7429 104.113 90.9486 104.017 91.1543 103.922C91.6943 103.708 92.2343 103.47 92.7743 103.208C92.98 103.113 93.16 102.994 93.34 102.899C93.8543 102.613 94.3686 102.351 94.8829 102.042C95.0629 101.946 95.2171 101.827 95.3971 101.708C95.9114 101.375 96.4 101.042 96.8629 100.685C97.0171 100.566 97.1457 100.446 97.3 100.351C97.5829 100.137 97.8657 99.9228 98.1229 99.7085C98.1229 99.6847 98.1229 99.6847 98.0971 99.6609C103.214 95.3043 106.429 89.0908 106.429 82.187Z" fill="#FCB500"/>
<path d="M80.7141 70.1165C75.3913 70.1165 71.0713 74.1159 71.0713 79.0439C71.0713 83.8766 75.1599 87.8046 80.5856 87.9475H80.817H80.997H81.0484C86.2427 87.7808 90.3313 83.8766 90.357 79.0439C90.357 74.1159 86.037 70.1165 80.7141 70.1165Z" fill="#FCB500"/>
<path d="M161.5 81C161.5 124.898 125.691 160.5 81.5 160.5C37.3085 160.5 1.5 124.898 1.5 81C1.5 37.1021 37.3085 1.5 81.5 1.5C125.691 1.5 161.5 37.1021 161.5 81Z" fill="#FCB500" fill-opacity="0.24" stroke="#FCB500" stroke-width="3"/>
</svg>
