<svg width="38" height="35" viewBox="0 0 38 35" fill="none" xmlns="http://www.w3.org/2000/svg">
<path d="M25.3156 34.376H25.0804C17.0463 34.376 13.174 31.4472 12.5045 24.8866C12.4321 24.2005 12.975 23.5812 13.7349 23.5143C14.4768 23.4473 15.1463 23.9662 15.2187 24.6523C15.7435 29.9075 18.4215 31.8656 25.0985 31.8656H25.3337C32.6983 31.8656 35.304 29.4556 35.304 22.644V11.732C35.304 4.92042 32.6983 2.51042 25.3337 2.51042H25.0985C18.3853 2.51042 15.7073 4.50202 15.2187 9.85758C15.1282 10.5438 14.513 11.0626 13.7349 10.9956C12.975 10.9454 12.4321 10.3262 12.4864 9.64001C13.1016 2.97903 16.992 0 25.0804 0H25.3156C34.2002 0 38.0001 3.51459 38.0001 11.732V22.644C38.0001 30.8614 34.2002 34.376 25.3156 34.376Z" fill="#292D32"/>
<path d="M24.6632 18.4433H1.35711C0.615223 18.4433 0 17.8743 0 17.1881C0 16.5019 0.615223 15.9329 1.35711 15.9329H24.6632C25.4051 15.9329 26.0203 16.5019 26.0203 17.1881C26.0203 17.8743 25.4232 18.4433 24.6632 18.4433Z" fill="#292D32"/>
<path d="M20.628 24.05C20.2842 24.05 19.9404 23.9328 19.669 23.6818C19.1442 23.1964 19.1442 22.3931 19.669 21.9078L24.7717 17.1882L19.669 12.4686C19.1442 11.9832 19.1442 11.1799 19.669 10.6945C20.1937 10.2092 21.0623 10.2092 21.587 10.6945L27.6488 16.3012C28.1735 16.7865 28.1735 17.5898 27.6488 18.0752L21.587 23.6818C21.3156 23.9328 20.9718 24.05 20.628 24.05Z" fill="#292D32"/>
</svg>
