<svg width="57" height="204" viewBox="0 0 57 204" fill="none" xmlns="http://www.w3.org/2000/svg">
<circle cx="28.5" cy="175.5" r="28" fill="#FCB500" stroke="black"/>
<path fill-rule="evenodd" clip-rule="evenodd" d="M9.22617 178.176C8.08582 179.9 8.41599 181.103 8.82005 182.281L27.3172 194.249L44.4852 187.43L43.1561 186.595L42.8607 185.204C43.3333 184.774 43.7786 184.349 44.0791 183.951C44.1617 183.477 44.5417 182.863 43.8945 182.734L24.2897 173.688L10.8876 177.689L10.2599 178.246L9.22617 178.176Z" fill="white" stroke="#FF6600" stroke-width="0.29055"/>
<path fill-rule="evenodd" clip-rule="evenodd" d="M24.3913 173.302L10.416 177.354C10.416 177.354 10.2397 177.778 10.0391 177.861C9.74656 177.981 9.09031 177.739 9.09031 177.739C8.50754 177.993 8.07825 179.099 8.01178 180.119C7.94531 181.139 8.16611 182.144 8.52249 182.52L27.0052 194.648C27.2819 194.796 27.4224 194.75 27.5633 194.706L44.8843 187.97C45.227 187.824 45.2443 187.478 44.9536 187.105L43.2551 185.994C43.392 186.576 43.493 187.124 43.4215 187.443C40.0386 188.721 32.1678 191.725 27.6873 193.527C27.3387 193.07 27.2997 192.368 27.2312 191.749C27.155 191.06 27.2274 190.137 27.5151 189.728C27.8029 189.319 28.1512 189.724 28.3783 189.624C28.5615 189.543 28.8434 189.359 28.9959 189.145C32.4763 188.047 40.1455 185.128 44.8223 183.413C45.1584 183.087 44.9742 182.885 44.7643 182.688L24.3913 173.302ZM24.3228 174.121L43.3742 183.079L28.4844 188.437C28.4844 188.437 28.2804 188.759 28.0976 188.82C27.9394 188.873 27.6973 188.667 27.5241 188.61C27.311 188.541 26.9561 188.668 26.8037 188.892C26.4411 189.424 26.2218 190.076 26.1062 190.697C25.967 191.444 26.0778 192.17 26.2881 192.829L9.64916 182.041C9.26935 181.798 8.89617 181.073 8.94591 180.31C8.99634 179.536 9.19761 178.739 9.73646 178.494C9.73646 178.494 10.3447 178.696 10.5335 178.643C10.7461 178.582 11.0034 178.153 11.0034 178.153L24.3228 174.121ZM10.9139 179.07C10.5912 179.197 15.9937 182.173 18.8314 183.773C21.5639 185.313 27.4156 188.562 27.5877 188.305C27.7599 188.048 21.8801 184.987 19.1585 183.447C16.4039 181.889 11.2367 178.942 10.9139 179.07Z" fill="black"/>
<path fill-rule="evenodd" clip-rule="evenodd" d="M44.4214 183.559L29.0087 189.132C28.8905 189.225 28.5552 189.575 28.3389 189.618C28.0844 189.669 27.8157 189.351 27.4986 189.712C27.2322 190.428 27.2004 190.92 27.2881 191.588C27.403 192.465 27.4589 192.715 27.7653 193.491L43.3967 187.516C43.6121 186.879 43.2947 186.253 43.1928 185.686C43.1589 185.475 43.1642 185.289 43.2687 185.053C43.3731 184.818 43.7368 184.666 44.1212 184.268C44.3492 184.031 44.3996 183.795 44.4214 183.559ZM43.5297 184.31C43.5839 184.589 43.0477 184.549 42.7865 184.859C42.7317 184.924 42.6898 184.998 42.6551 185.076C42.456 185.139 41.6914 185.384 41.2845 185.525C39.5911 186.115 36.2121 187.323 36.2541 187.419C36.2961 187.515 39.6142 186.196 41.3033 185.677C41.7365 185.544 42.4031 185.348 42.5858 185.295C42.534 185.506 42.5265 185.706 42.5401 185.791C42.6231 186.307 42.7028 186.666 42.6943 187.028L28.099 192.745C27.8863 192.26 27.7382 191.8 27.7074 191.306C27.8719 191.247 31.6105 189.926 33.5741 189.142C35.2993 188.454 38.8954 187.257 38.8256 187.16C38.7559 187.062 35.186 188.248 33.4656 188.985C31.6195 189.776 28.15 190.978 27.7001 191.096C27.7028 190.785 27.7518 190.458 27.8673 190.099C27.9754 190.112 28.3871 190.131 28.4971 190.115C28.7429 190.078 28.9162 189.876 29.162 189.647C29.7103 189.451 43.5297 184.31 43.5297 184.31ZM36.2769 188.899C34.4522 189.592 29.6707 191.476 29.6621 191.563C29.6536 191.65 34.5413 189.766 36.3479 189.073C38.0093 188.436 42.1849 186.972 41.8738 186.958C41.5627 186.943 37.8221 188.312 36.2769 188.899Z" fill="black"/>
<path fill-rule="evenodd" clip-rule="evenodd" d="M9.89103 171.357L11.2571 171.009L25.8038 170.905L42.0119 180.229L41.3473 180.577L40.6827 182.42C40.8735 182.919 40.8578 183.807 41.3104 183.812L21.0779 188.509L8.96802 175.08C9.14724 173.799 8.65135 172.305 9.89103 171.357Z" fill="white" stroke="#FF0000" stroke-width="0.29055"/>
<path fill-rule="evenodd" clip-rule="evenodd" d="M25.9233 170.539L11.0368 170.675C10.94 170.805 10.709 170.996 10.5962 171.02C10.4776 171.045 10.1561 170.799 9.95906 170.871C9.06526 171.195 8.97366 172.184 8.82015 172.732C8.54415 173.717 8.79021 175.216 9.10488 175.661C9.5748 176.177 20.2961 188.137 20.7052 188.517C21.1778 188.957 21.6108 189.016 22.3989 188.823C25.9182 187.956 36.16 185.854 42.63 184.195C43.0116 184.007 42.8547 183.695 42.5753 183.446L41.0236 182.558C41.0308 182.958 41.0912 183.322 41.2162 183.697C35.2037 185.004 28.0427 186.474 21.9445 187.767C21.414 187.591 20.8767 186.807 20.8154 186.398C20.6458 185.267 20.8719 184.73 21.1025 184.415C21.3323 184.102 21.509 183.912 21.7193 183.789C21.9517 183.811 22.2955 183.905 22.5001 183.833C22.7169 183.756 22.8686 183.607 23.0279 183.467L42.3795 180.621C42.6802 180.407 42.4868 180.108 42.3371 179.98L25.9233 170.539ZM25.7487 171.358L40.8857 180.074L22.5645 182.729C22.3628 182.826 22.292 183.047 22.2023 183.078C22.1126 183.11 21.824 183.046 21.5806 183.024C21.0753 183.164 20.4208 184.027 20.2614 184.641C19.897 186.043 20.1773 186.765 20.839 187.763L9.82852 175.298C9.56261 174.916 9.41193 174.277 9.58867 173.237C9.67635 172.721 9.8618 172.222 10.1434 171.797C10.3215 171.81 10.4802 171.929 10.7773 171.839C11.16 171.722 11.1533 171.448 11.2448 171.415L25.7487 171.358ZM11.0426 172.285C10.8372 172.461 14.483 175.752 16.281 177.516C18.1003 179.3 21.499 183.001 21.7691 182.805C22.0392 182.608 18.4298 179.007 16.6179 177.231C14.867 175.515 11.2481 172.108 11.0426 172.285Z" fill="black"/>
<path fill-rule="evenodd" clip-rule="evenodd" d="M41.8527 180.699C35.5166 181.557 26.3638 182.859 23.0322 183.45C22.8986 183.623 22.6739 183.773 22.3893 183.835C22.2816 183.859 22.0186 183.811 21.7219 183.787C21.0205 184.217 20.7212 185.102 20.8155 185.92C20.9363 186.967 21.3896 187.37 21.9875 187.772C28.4034 186.431 34.8192 185.328 41.2351 183.699C40.7713 182.34 41.2068 181.536 41.8527 180.699ZM40.4919 181.449C40.2493 181.892 40.2094 182.186 40.2781 182.684C40.1421 182.708 38.6199 182.977 37.8053 183.127C36.815 183.309 34.8893 183.573 34.8862 183.708C34.8832 183.843 36.8898 183.534 37.873 183.342C38.5989 183.201 39.9514 183.047 40.2977 182.802C40.3161 182.918 40.3329 183.028 40.3605 183.171L22.1829 187.202C21.9487 187.068 21.7472 186.806 21.602 186.529C21.9138 186.471 24.8348 185.937 26.3763 185.711C28.151 185.45 31.6856 184.732 31.6368 184.612C31.5879 184.493 28.2634 185.297 26.3477 185.485C24.754 185.642 21.7738 186.227 21.4902 186.283C21.4346 186.135 21.3936 185.992 21.385 185.871C21.3401 185.239 21.323 184.812 21.9104 184.254C22.0372 184.351 22.3174 184.415 22.5418 184.369C22.8681 184.303 23.0177 184.224 23.2198 184.013L40.4919 181.449ZM38.1765 182.438C37.8564 182.384 33.5683 183.149 31.3537 183.479C28.3087 183.933 22.1885 184.688 22.2587 184.856C22.329 185.023 28.436 184.124 31.5062 183.646C33.8374 183.283 38.4966 182.493 38.1765 182.438Z" fill="black"/>
<path fill-rule="evenodd" clip-rule="evenodd" d="M25.3233 165.374L9.44745 167.496C8.91055 168.801 8.06083 169.944 9.41053 172.227L26.0247 184.125L44.7804 178.872L43.3774 178.141C43.4112 176.77 43.7789 175.571 44.5588 174.106L25.3233 165.374Z" fill="white" stroke="#FF6600" stroke-width="0.29055"/>
<path fill-rule="evenodd" clip-rule="evenodd" d="M25.3376 165.136L9.58378 167.107C8.77467 167.325 8.31287 168.991 8.3478 169.999C8.37511 170.787 8.83594 172.035 9.35943 172.58L26.1346 184.602L45.5825 179.278C45.8272 178.978 45.7073 178.816 45.6152 178.643L43.7844 177.596C43.7844 177.596 43.8277 178.348 43.7754 178.84C38.7756 180.077 30.8693 182.119 26.1942 183.36C25.9063 183.087 25.5138 182.035 25.4918 181.36C25.4541 180.209 25.6398 179.479 26.1142 179.075L45.6576 174.929C45.8844 174.79 45.9111 174.449 45.5801 174.148L25.3376 165.136ZM25.2845 165.771L43.8546 174.322L25.2707 178.218C24.6155 178.972 24.4511 179.798 24.4663 180.625C24.4789 181.317 24.6784 182.335 25.0292 182.875L9.89462 171.877C9.51926 171.558 9.24631 170.548 9.24521 170.096C9.24352 169.401 9.49571 168.716 9.92725 167.843L25.2845 165.771ZM10.757 168.346C10.37 168.505 16.994 172.953 16.994 172.953C16.994 172.953 24.6861 178.232 24.7795 177.986C24.8729 177.741 17.539 172.466 17.539 172.466C17.539 172.466 11.144 168.186 10.757 168.346Z" fill="black"/>
<path fill-rule="evenodd" clip-rule="evenodd" d="M44.7657 175.112L43.923 175.29L26.3287 178.972C26.006 179.301 25.4651 179.952 25.6336 181.368C25.7199 182.093 25.9154 182.745 26.3866 183.325L43.7778 178.848C43.8491 178.427 43.7848 177.583 43.8406 176.974C43.8964 176.366 44.1073 176.145 44.3211 175.81L44.7657 175.112ZM43.3943 175.988C43.3045 176.291 43.1705 176.573 43.108 176.888C42.8967 176.881 42.5844 176.875 42.4014 176.911C41.3258 177.122 39.1807 177.684 39.2433 177.8C39.3059 177.917 41.2499 177.251 42.4798 177.179C42.6577 177.169 42.8907 177.18 43.068 177.191C43.0513 177.381 43.0425 177.535 43.0353 177.687C41.1245 178.141 38.9987 178.628 37.0936 179.069C34.6406 179.638 30.9899 180.385 31.0369 180.577C31.0838 180.769 34.7311 179.832 37.1662 179.268C39.07 178.826 41.1171 178.407 43.028 177.957C43.0302 178.079 43.0378 178.19 43.059 178.278L26.8361 182.433C26.3256 182.24 26.3223 181.725 26.2667 181.329C26.1826 180.732 26.1816 180.043 26.602 179.723L43.3943 175.988ZM34.0873 178.662C31.4111 179.284 26.5119 180.506 26.5555 180.628C26.599 180.751 31.4817 179.507 34.1256 178.831C35.5238 178.473 38.3906 177.811 38.1352 177.747C37.8799 177.683 35.3961 178.357 34.0873 178.662Z" fill="black"/>
<path fill-rule="evenodd" clip-rule="evenodd" d="M27.7974 160.99L12.4754 165.095C12.4754 165.095 12.2908 165.652 12.0693 165.617C11.8478 165.582 10.9248 165.582 10.9248 165.582C10.1033 166.569 10.085 167.506 10.7402 168.4L32.5971 178.489L48.9159 172.923L48.1775 172.331L48.9529 171.253L48.9898 169.548L27.7974 160.99Z" fill="white" stroke="#FF6600" stroke-width="0.29055"/>
<path fill-rule="evenodd" clip-rule="evenodd" d="M27.8098 160.736C22.6586 162.087 16.8355 163.539 12.1474 164.704C12.056 164.758 12.0225 164.971 11.8227 165.163C11.7356 165.247 11.3705 165.07 11.241 165.084C11.0381 165.106 10.8042 165.267 10.6405 165.403C10.4174 165.588 10.3505 165.77 10.2514 166.028C10.1491 166.294 10.1519 166.59 10.129 166.922C10.0833 167.587 10.2141 168.365 10.5092 168.73C17.7432 172.102 25.4877 175.855 32.4119 179.031C32.5575 179.137 32.8829 179.153 33.0679 179.124C33.2528 179.094 33.4106 179.036 33.4684 178.919C33.5052 178.845 33.6151 178.704 33.7352 178.63C33.8574 178.554 33.9733 178.746 34.2484 178.741L49.3748 173.288C49.5434 173.227 49.6542 172.996 49.3756 172.785L48.4113 172.201L47.9283 172.882C43.436 174.337 38.3625 176.091 33.612 177.731C33.2493 177.658 32.8297 176.938 32.8076 176.599C32.783 176.22 32.9864 175.785 33.1111 175.598C38.3837 173.747 44.1245 171.908 49.8308 170.002C50.0987 169.86 50.0213 169.636 49.7892 169.375L27.8098 160.736ZM27.7845 161.365L48.2987 169.795L32.9977 174.765C32.647 174.89 32.43 175.157 32.2455 175.411C32.0055 175.741 31.8408 176.234 31.8792 176.825C31.9147 177.371 32.0588 177.738 32.2545 178.034L11.1561 168.185C10.8778 167.8 10.8891 167.448 10.9163 166.985C10.9377 166.621 11.0433 166.303 11.2696 166.033C11.2963 166.001 11.5974 165.785 11.9108 165.952C12.0405 166.021 12.1665 166.024 12.3872 165.875C12.6591 165.691 12.5643 165.522 12.7519 165.38L27.7845 161.365ZM12.6173 165.851C12.5646 165.842 12.5332 165.844 12.5243 165.858C12.3813 166.071 18.5475 168.835 21.6037 170.239C24.9814 171.792 31.7112 174.889 31.8311 174.711C31.9509 174.532 25.1328 171.415 21.7343 169.861C18.8826 168.557 13.4083 165.991 12.6173 165.851Z" fill="black"/>
<path fill-rule="evenodd" clip-rule="evenodd" d="M49.3045 170.187C43.7234 171.907 35.9974 174.633 33.1599 175.552C32.8389 175.885 32.8624 176.308 32.969 176.698C33.0756 177.088 33.4161 177.63 33.6633 177.724L48.0571 172.863C48.1667 172.72 48.6277 172.318 48.9357 171.872C49.0898 171.648 49.209 171.281 49.2694 171.038C49.3298 170.794 49.4291 170.362 49.3045 170.187ZM48.7677 170.687C48.8743 171.006 48.6392 171.256 48.4797 171.502C48.2258 171.893 47.8879 172.285 47.6647 172.565L33.8526 177.232C33.6301 177.122 33.4513 176.883 33.3737 176.599C33.294 176.308 33.3205 175.996 33.4096 175.863L48.7677 170.687ZM41.4464 173.462C39.0468 174.287 34.2171 175.757 34.2866 176.001C34.3561 176.246 39.1544 174.466 41.5761 173.631C43.8544 172.844 48.187 171.35 48.1009 171.249C48.0149 171.149 43.6036 172.72 41.4464 173.462ZM47.6679 172.123C47.6156 172.062 45.8756 172.634 45.0197 172.941C44.2141 173.23 33.7913 176.744 33.8395 176.865C33.8877 176.986 44.3417 173.401 45.1568 173.112C46.0057 172.811 47.7203 172.184 47.6679 172.123Z" fill="black"/>
<path fill-rule="evenodd" clip-rule="evenodd" d="M29.0526 156.224L11.9215 159.425C10.6689 160.565 10.2228 161.996 11.0354 163.878L28.425 174.802L48.6205 170.001L46.8483 168.818L46.7006 167.009L48.3251 164.921L29.0526 156.224Z" fill="white" stroke="#FF6600" stroke-width="0.29055"/>
<path fill-rule="evenodd" clip-rule="evenodd" d="M29.1257 156L11.5085 159.23C11.5085 159.23 10.3489 160.467 10.3672 161.742C10.3849 162.981 10.5397 163.717 10.9162 164.072C11.465 164.432 28.4224 175.241 28.4224 175.241L48.8575 170.174C49.0682 169.93 48.913 169.744 48.7563 169.558L47.1923 168.896L47.3286 169.569C41.3078 171.075 34.9502 172.629 28.8369 174.059C28.7537 173.725 28.4643 172.791 28.4371 172.465C28.3331 171.219 29.2123 170.08 29.328 169.935L48.6445 165.623C48.856 165.355 48.7956 165 48.5686 164.791L29.1257 156ZM29.0759 156.579L47.4558 164.998L28.9388 169.362C28.9388 169.362 27.5417 170.679 27.6637 172.44C27.7084 173.085 28.0701 173.991 28.1369 174.236L11.617 163.855C11.2797 163.525 11.1718 162.856 11.1553 161.7C11.1445 160.951 11.7699 159.943 11.8642 159.865L29.0759 156.579ZM12.1742 159.965C12.0773 160.151 17.4209 163.139 20.0976 164.641C22.931 166.231 28.4511 169.443 28.7047 169.242C28.9583 169.04 23.1944 165.92 20.3856 164.344C17.6842 162.828 12.2712 159.78 12.1742 159.965Z" fill="black"/>
<path fill-rule="evenodd" clip-rule="evenodd" d="M48.264 165.583C48.2061 165.59 48.1433 165.616 48.1106 165.624L29.4761 169.898C29.0439 170.574 28.6132 171.243 28.5314 171.969C28.4545 172.651 28.8158 173.548 28.9458 174.152L47.3315 169.601C47.1917 168.928 47.098 168.313 47.09 167.767C47.0803 167.103 47.4033 166.614 47.7206 166.271C47.8793 166.099 48.0005 166.06 48.1253 165.975C48.2295 165.905 48.3506 165.848 48.3929 165.78C48.4127 165.748 48.4052 165.724 48.392 165.663C48.3765 165.591 48.3222 165.577 48.264 165.583ZM46.6429 166.444C46.3605 166.77 46.2863 167.01 46.2693 167.263C45.0373 167.432 41.1035 168.237 38.9684 168.698C36.4854 169.233 31.5279 170.375 31.5655 170.496C31.603 170.616 36.5818 169.519 39.0752 168.981C41.2062 168.522 45.0423 167.719 46.2652 167.381C46.2646 167.532 46.2726 167.69 46.2733 167.881C46.2766 168.715 46.4033 169.005 46.4381 169.155L29.2885 173.196C29.2294 173.047 29.1937 172.925 29.1669 172.811C29.5318 172.814 30.648 172.614 31.2432 172.477C32.0159 172.298 34.5871 171.613 34.5759 171.514C34.5647 171.415 31.9367 172.067 31.1412 172.251C30.5568 172.386 29.4842 172.584 29.149 172.716C29.1095 172.492 29.1148 172.284 29.1367 171.959C29.1896 171.173 29.5705 170.7 29.6336 170.61L46.6429 166.444ZM36.4172 170.26C34.2528 170.708 29.9588 171.527 29.9689 171.703C29.979 171.878 34.342 170.999 36.5062 170.551C38.9096 170.053 43.7176 168.985 43.3759 168.928C43.0343 168.872 38.6701 169.794 36.4172 170.26Z" fill="black"/>
<path d="M32 128.1C32 128.247 31.9533 128.367 31.86 128.46C31.7667 128.553 31.6467 128.6 31.5 128.6H18.5C18.3533 128.6 18.2333 128.553 18.14 128.46C18.0467 128.367 18 128.247 18 128.1V122.66C18 120.94 18.4 119.587 19.2 118.6C19.9867 117.6 21.1067 117.1 22.56 117.1C23.5067 117.1 24.3067 117.333 24.96 117.8C25.6133 118.253 26.1067 118.853 26.44 119.6L31.36 116.84C31.44 116.8 31.5133 116.78 31.58 116.78C31.6867 116.78 31.7867 116.827 31.88 116.92C31.96 117 32 117.1 32 117.22V119.86C32 120.113 31.94 120.3 31.82 120.42C31.6867 120.54 31.5667 120.627 31.46 120.68L27.06 122.96V125.02H31.5C31.6467 125.02 31.7667 125.067 31.86 125.16C31.9533 125.253 32 125.373 32 125.52V128.1ZM24.24 125.02V122.7C24.24 122.073 24.0867 121.607 23.78 121.3C23.4733 120.98 23.0533 120.82 22.52 120.82C22 120.82 21.58 120.973 21.26 121.28C20.94 121.573 20.78 122.047 20.78 122.7V125.02H24.24ZM32.2 110.329C32.2 111.902 31.7733 113.155 30.92 114.089C30.0667 115.022 28.8 115.509 27.12 115.549C27.0267 115.549 26.9067 115.549 26.76 115.549C26.6133 115.549 26.5 115.549 26.42 115.549C25.3667 115.509 24.4667 115.275 23.72 114.849C22.96 114.409 22.3867 113.809 22 113.049C21.6 112.275 21.4 111.375 21.4 110.349C21.4 109.175 21.6333 108.209 22.1 107.449C22.5667 106.675 23.2 106.095 24 105.709C24.8 105.322 25.7133 105.129 26.74 105.129H27.22C27.3667 105.129 27.4867 105.182 27.58 105.289C27.6733 105.382 27.72 105.495 27.72 105.629L27.72 112.029C27.7333 112.029 27.7533 112.029 27.78 112.029C27.8067 112.029 27.8333 112.029 27.86 112.029C28.2467 112.015 28.6 111.949 28.92 111.829C29.24 111.709 29.4933 111.522 29.68 111.269C29.8667 111.015 29.96 110.709 29.96 110.349C29.96 110.082 29.92 109.862 29.84 109.689C29.7467 109.502 29.6467 109.349 29.54 109.229C29.42 109.109 29.32 109.015 29.24 108.949C29.1067 108.829 29.0267 108.735 29 108.669C28.96 108.589 28.94 108.469 28.94 108.309V105.829C28.94 105.695 28.98 105.589 29.06 105.509C29.1267 105.415 29.2267 105.375 29.36 105.389C29.5867 105.402 29.86 105.515 30.18 105.729C30.5 105.942 30.82 106.255 31.14 106.669C31.4467 107.069 31.7 107.575 31.9 108.189C32.1 108.802 32.2 109.515 32.2 110.329ZM25.74 112.029L25.74 108.649H25.7C25.2733 108.649 24.9 108.715 24.58 108.849C24.26 108.969 24.0133 109.162 23.84 109.429C23.6667 109.682 23.58 109.989 23.58 110.349C23.58 110.709 23.6667 111.015 23.84 111.269C24.0133 111.509 24.26 111.695 24.58 111.829C24.9 111.962 25.2733 112.029 25.7 112.029H25.74ZM32 102.754C32 102.9 31.9533 103.02 31.86 103.114C31.7667 103.207 31.6467 103.254 31.5 103.254H18.3C18.1533 103.254 18.0333 103.207 17.94 103.114C17.8467 103.02 17.8 102.9 17.8 102.754V100.394C17.8 100.247 17.8467 100.127 17.94 100.034C18.0333 99.9403 18.1533 99.8936 18.3 99.8936H31.5C31.6467 99.8936 31.7667 99.9403 31.86 100.034C31.9533 100.127 32 100.247 32 100.394V102.754ZM32.2 92.7309C32.2 94.3043 31.7733 95.5576 30.92 96.4909C30.0667 97.4243 28.8 97.9109 27.12 97.9509C27.0267 97.9509 26.9067 97.9509 26.76 97.9509C26.6133 97.9509 26.5 97.9509 26.42 97.9509C25.3667 97.9109 24.4667 97.6776 23.72 97.2509C22.96 96.8109 22.3867 96.2109 22 95.4509C21.6 94.6776 21.4 93.7776 21.4 92.7509C21.4 91.5776 21.6333 90.6109 22.1 89.8509C22.5667 89.0776 23.2 88.4976 24 88.1109C24.8 87.7243 25.7133 87.5309 26.74 87.5309H27.22C27.3667 87.5309 27.4867 87.5843 27.58 87.6909C27.6733 87.7843 27.72 87.8976 27.72 88.0309V94.4309C27.7333 94.4309 27.7533 94.4309 27.78 94.4309C27.8067 94.4309 27.8333 94.4309 27.86 94.4309C28.2467 94.4176 28.6 94.3509 28.92 94.2309C29.24 94.1109 29.4933 93.9243 29.68 93.6709C29.8667 93.4176 29.96 93.1109 29.96 92.7509C29.96 92.4843 29.92 92.2643 29.84 92.0909C29.7467 91.9043 29.6467 91.7509 29.54 91.6309C29.42 91.5109 29.32 91.4176 29.24 91.3509C29.1067 91.2309 29.0267 91.1376 29 91.0709C28.96 90.9909 28.94 90.8709 28.94 90.7109V88.2309C28.94 88.0976 28.98 87.9909 29.06 87.9109C29.1267 87.8176 29.2267 87.7776 29.36 87.7909C29.5867 87.8043 29.86 87.9176 30.18 88.1309C30.5 88.3443 30.82 88.6576 31.14 89.0709C31.4467 89.4709 31.7 89.9776 31.9 90.5909C32.1 91.2043 32.2 91.9176 32.2 92.7309ZM25.74 94.4309V91.0509H25.7C25.2733 91.0509 24.9 91.1176 24.58 91.2509C24.26 91.3709 24.0133 91.5643 23.84 91.8309C23.6667 92.0843 23.58 92.3909 23.58 92.7509C23.58 93.1109 23.6667 93.4176 23.84 93.6709C24.0133 93.9109 24.26 94.0976 24.58 94.2309C24.9 94.3643 25.2733 94.4309 25.7 94.4309H25.74ZM32.2 80.8559C32.2 82.4293 31.7733 83.6826 30.92 84.6159C30.0667 85.5493 28.8 86.0359 27.12 86.0759C27.0267 86.0759 26.9067 86.0759 26.76 86.0759C26.6133 86.0759 26.5 86.0759 26.42 86.0759C25.3667 86.0359 24.4667 85.8026 23.72 85.3759C22.96 84.9359 22.3867 84.3359 22 83.5759C21.6 82.8026 21.4 81.9026 21.4 80.8759C21.4 79.7026 21.6333 78.7359 22.1 77.9759C22.5667 77.2026 23.2 76.6226 24 76.2359C24.8 75.8493 25.7133 75.6559 26.74 75.6559H27.22C27.3667 75.6559 27.4867 75.7093 27.58 75.8159C27.6733 75.9093 27.72 76.0226 27.72 76.1559V82.5559C27.7333 82.5559 27.7533 82.5559 27.78 82.5559C27.8067 82.5559 27.8333 82.5559 27.86 82.5559C28.2467 82.5426 28.6 82.4759 28.92 82.3559C29.24 82.2359 29.4933 82.0493 29.68 81.7959C29.8667 81.5426 29.96 81.2359 29.96 80.8759C29.96 80.6093 29.92 80.3893 29.84 80.2159C29.7467 80.0293 29.6467 79.8759 29.54 79.7559C29.42 79.6359 29.32 79.5426 29.24 79.4759C29.1067 79.3559 29.0267 79.2626 29 79.1959C28.96 79.1159 28.94 78.9959 28.94 78.8359V76.3559C28.94 76.2226 28.98 76.1159 29.06 76.0359C29.1267 75.9426 29.2267 75.9026 29.36 75.9159C29.5867 75.9293 29.86 76.0426 30.18 76.2559C30.5 76.4693 30.82 76.7826 31.14 77.1959C31.4467 77.5959 31.7 78.1026 31.9 78.7159C32.1 79.3293 32.2 80.0426 32.2 80.8559ZM25.74 82.5559V79.1759H25.7C25.2733 79.1759 24.9 79.2426 24.58 79.3759C24.26 79.4959 24.0133 79.6893 23.84 79.9559C23.6667 80.2093 23.58 80.5159 23.58 80.8759C23.58 81.2359 23.6667 81.5426 23.84 81.7959C24.0133 82.0359 24.26 82.2226 24.58 82.3559C24.9 82.4893 25.2733 82.5559 25.7 82.5559H25.74ZM32 73.2809C32 73.4276 31.9533 73.5476 31.86 73.6409C31.7667 73.7343 31.6467 73.7809 31.5 73.7809H18.3C18.1533 73.7809 18.0333 73.7343 17.94 73.6409C17.8467 73.5476 17.8 73.4276 17.8 73.2809V70.9209C17.8 70.7743 17.8467 70.6543 17.94 70.5609C18.0333 70.4676 18.1533 70.4209 18.3 70.4209H31.5C31.6467 70.4209 31.7667 70.4676 31.86 70.5609C31.9533 70.6543 32 70.7743 32 70.9209V73.2809ZM32.2 63.1383C32.2 64.2583 32.02 65.2049 31.66 65.9783C31.3 66.7383 30.7867 67.3249 30.12 67.7383C29.44 68.1383 28.6333 68.3649 27.7 68.4183C27.4333 68.4316 27.1333 68.4383 26.8 68.4383C26.4533 68.4383 26.1533 68.4316 25.9 68.4183C24.9533 68.3649 24.1467 68.1249 23.48 67.6983C22.8133 67.2716 22.3 66.6783 21.94 65.9183C21.58 65.1449 21.4 64.2183 21.4 63.1383C21.4 62.0449 21.58 61.1183 21.94 60.3583C22.3 59.5849 22.8133 58.9849 23.48 58.5583C24.1467 58.1316 24.9533 57.8916 25.9 57.8383C26.1533 57.8249 26.4533 57.8183 26.8 57.8183C27.1333 57.8183 27.4333 57.8249 27.7 57.8383C28.6333 57.8916 29.44 58.1249 30.12 58.5383C30.7867 58.9383 31.3 59.5249 31.66 60.2983C32.02 61.0583 32.2 62.0049 32.2 63.1383ZM29.76 63.1383C29.76 62.5383 29.58 62.1049 29.22 61.8383C28.86 61.5583 28.32 61.3983 27.6 61.3583C27.4 61.3449 27.1333 61.3383 26.8 61.3383C26.4667 61.3383 26.2 61.3449 26 61.3583C25.2933 61.3983 24.76 61.5583 24.4 61.8383C24.0267 62.1049 23.84 62.5383 23.84 63.1383C23.84 63.7249 24.0267 64.1583 24.4 64.4383C24.76 64.7183 25.2933 64.8716 26 64.8983C26.2 64.9116 26.4667 64.9183 26.8 64.9183C27.1333 64.9183 27.4 64.9116 27.6 64.8983C28.32 64.8716 28.86 64.7183 29.22 64.4383C29.58 64.1583 29.76 63.7249 29.76 63.1383Z" fill="black"/>
</svg>
